<svg xmlns="http://www.w3.org/2000/svg" width="90.254" height="89.834" viewBox="0 0 90.254 89.834">
<path d="M533.268,86.5a14.348,14.348,0,0,1-7.413,1.3,1.118,1.118,0,0,1-.992-.726c-.1-.23-.176-.477-.247-.671-.6.389-1.16.817-1.778,1.145a19.78,19.78,0,0,1-1.974.846,10.656,10.656,0,0,0-2.628,1.363c-.2.157-.4.323-.593.482l-.329-1.675c-.12.082-.168.109-.211.144-.994.817-1.993,1.628-2.98,2.454a9.28,9.28,0,0,1-3.388,1.788.869.869,0,0,1-.168.023,16.154,16.154,0,0,1,2.583-7.488c-.385.042-.665.1-.945.1-.37.006-.5-.16-.412-.521a6.6,6.6,0,0,1,.267-.737c.352-.924.73-1.839,1.049-2.774a11,11,0,0,0,.292-1.4,1.793,1.793,0,0,0-.472.289,22.319,22.319,0,0,1-2.056,1.4c-.9.488-1.525.221-1.883-.744a15.825,15.825,0,0,1-.49-1.774c-.176-.725-.329-1.457-.482-2.142l-2.335-.134c.1-1.265-.565-2.43-.768-3.738l-.311.228a.756.756,0,0,1-1.285-.347,3.687,3.687,0,0,1-.217-.681c-.282-1.394-.547-2.792-.831-4.185-.142-.694-.314-1.382-.473-2.072l-.093,0a2.924,2.924,0,0,0-.112.338c-.321,1.572-.626,3.147-.963,4.715a15.591,15.591,0,0,1-.54,1.97.7.7,0,0,1-1.118.336c-.138-.089-.269-.189-.428-.3-.2,1.313-.868,2.476-.768,3.735l-2.316.131c-.028.107-.062.226-.09.347-.256,1.085-.466,2.184-.778,3.252-.394,1.35-1.1,1.628-2.307.913-.682-.4-1.291-.928-1.933-1.4-.075-.055-.148-.112-.273-.208.029.231.044.389.069.546a13.536,13.536,0,0,0,1.158,3.487,6.736,6.736,0,0,1,.365.955c.1.358-.04.527-.41.521-.28,0-.561-.057-.946-.1a16.168,16.168,0,0,1,2.586,7.505,8.542,8.542,0,0,1-3.206-1.559c-.853-.684-1.676-1.4-2.519-2.1-.311-.257-.639-.493-1.026-.789-.118.617-.221,1.153-.33,1.717a9.392,9.392,0,0,0-3.41-1.936,10.069,10.069,0,0,1-3.495-1.951c-.012-.012-.042-.005-.067-.008-.038.131-.076.262-.116.392a1.354,1.354,0,0,1-1.359,1.074,15.291,15.291,0,0,1-6.112-.868c-.764-.293-1.479-.716-2.2-1.073a9.232,9.232,0,0,0,1.138,2.629c.65,1,1.364,1.963,2.039,2.949a7.535,7.535,0,0,1,.632,1.051.814.814,0,0,1-.378,1.187l-.084.053c.373.872.774,1.7,1.084,2.562.38,1.056.626,2.173,1.741,2.8a6.49,6.49,0,0,0-2.02,2.2,24.466,24.466,0,0,1,9.236,6.453l-5.1,2.638c.269.157.206.39-.012.58a4.913,4.913,0,0,1-.954.71c-1.218.615-2.452,1.2-3.688,1.779-.467.219-.953.4-1.5.623a2.151,2.151,0,0,0,.223.07c1.077.181,2.154.364,3.231.54.853.138,1.717.224,2.558.413.745.168.872.474.655,1.194,0,.014.018.037.039.075.468-.025.944-.074,1.42-.068a8.528,8.528,0,0,1,1.559.111,1.2,1.2,0,0,1,1,1.436c-.01.1-.018.2-.028.316a15.5,15.5,0,0,1,3.765-.04,11.657,11.657,0,0,1,3.37.675c.624.249,1.217.55,1.273,1.428.889-.366,1.747-.675,2.566-1.064a20.326,20.326,0,0,0,3.834-2.664,27.754,27.754,0,0,1,2.342-1.71,20.255,20.255,0,0,1,1.973-.984c-.122,5.283-.243,10.459-.362,15.643h2.248c-.121-5.2-.241-10.364-.362-15.568.132.043.239.075.343.113a12.933,12.933,0,0,1,3.495,2.1c1.17.9,2.339,1.815,3.561,2.646a10.537,10.537,0,0,0,3.334,1.406,1.341,1.341,0,0,1,.905-1.194,3.558,3.558,0,0,1,.566-.235,18.021,18.021,0,0,1,6.913-.586c-.006-.082-.012-.18-.021-.278a1.193,1.193,0,0,1,.994-1.44,8.648,8.648,0,0,1,1.594-.111c.472-.006.946.042,1.43.066-.2-.848-.053-1.1.779-1.322a6.277,6.277,0,0,1,.769-.153c1.342-.187,2.685-.36,4.026-.552.346-.05.685-.152,1.027-.229a.8.8,0,0,0-.295-.187c-1.5-.683-3.011-1.348-4.5-2.061a6.465,6.465,0,0,1-1.257-.872c-.3-.25-.276-.383-.051-.611l-5.093-2.633a24.45,24.45,0,0,1,9.249-6.458c-.266-.37-.473-.714-.736-1.01-.382-.429-.8-.822-1.216-1.237a3.351,3.351,0,0,0,1.44-2.1,9.952,9.952,0,0,1,1.394-3.13c-.79-.594-.848-.917-.325-1.775.125-.2.26-.4.4-.6.368-.506.747-1.006,1.114-1.513a12.986,12.986,0,0,0,1.977-3.762c.037-.118.065-.24.1-.384C534.009,86.057,533.654,86.31,533.268,86.5Zm-22.443-2.826,0,0h0c0-.006,0-.011,0-.015a.13.13,0,0,1,0,.014l.008-.011a.13.13,0,0,1-.008.012s0,0,0,0l0,.006Zm-18.186,0s0,0,0,0l0,0,0,.01Z" transform="matrix(0.799, 0.602, -0.602, 0.799, -296.69, -335.189)" fill="#3472bd">
</path></svg>